<mxfile host="app.diagrams.net" agent="Mozilla/5.0 (Windows NT 10.0; Win64; x64) AppleWebKit/537.36 (KHTML, like Gecko) Chrome/138.0.0.0 Safari/537.36" version="28.0.3">
  <diagram name="Page-1" id="BFnxpIGSp0JZySxxMFFq">
    <mxGraphModel dx="1418" dy="644" grid="1" gridSize="10" guides="1" tooltips="1" connect="1" arrows="1" fold="1" page="1" pageScale="1" pageWidth="850" pageHeight="1100" math="0" shadow="0">
      <root>
        <mxCell id="0" />
        <mxCell id="1" parent="0" />
        <mxCell id="eMfwU3fscMKZv_2OrXQS-9" style="edgeStyle=orthogonalEdgeStyle;rounded=0;orthogonalLoop=1;jettySize=auto;html=1;exitX=1;exitY=0.5;exitDx=0;exitDy=0;exitPerimeter=0;entryX=0;entryY=0.5;entryDx=0;entryDy=0;entryPerimeter=0;" edge="1" parent="1" source="eMfwU3fscMKZv_2OrXQS-5" target="eMfwU3fscMKZv_2OrXQS-8">
          <mxGeometry relative="1" as="geometry" />
        </mxCell>
        <mxCell id="eMfwU3fscMKZv_2OrXQS-5" value="Input1" style="verticalLabelPosition=bottom;html=1;verticalAlign=top;align=center;strokeColor=none;fillColor=#00BEF2;shape=mxgraph.azure.cloud_services_configuration_file;pointerEvents=1;" vertex="1" parent="1">
          <mxGeometry x="120" y="60" width="40" height="40" as="geometry" />
        </mxCell>
        <mxCell id="eMfwU3fscMKZv_2OrXQS-11" style="edgeStyle=orthogonalEdgeStyle;rounded=0;orthogonalLoop=1;jettySize=auto;html=1;" edge="1" parent="1" source="eMfwU3fscMKZv_2OrXQS-8" target="eMfwU3fscMKZv_2OrXQS-10">
          <mxGeometry relative="1" as="geometry" />
        </mxCell>
        <mxCell id="eMfwU3fscMKZv_2OrXQS-8" value="Route Rulesets" style="fillColor=#C82128;aspect=fixed;sketch=0;pointerEvents=1;shadow=0;dashed=0;html=1;strokeColor=none;labelPosition=center;verticalLabelPosition=bottom;outlineConnect=0;verticalAlign=top;align=center;shape=mxgraph.openstack.neutron_router;points=[[0,0.5,0,0,0],[0.5,0,0,0,0],[0.5,1,0,0,0],[1,0.5,0,0,0]];" vertex="1" parent="1">
          <mxGeometry x="240" y="120" width="80" height="80" as="geometry" />
        </mxCell>
        <mxCell id="eMfwU3fscMKZv_2OrXQS-10" value="Server1" style="outlineConnect=0;dashed=0;verticalLabelPosition=bottom;verticalAlign=top;align=center;html=1;shape=mxgraph.aws3.traditional_server;fillColor=#7D7C7C;gradientColor=none;" vertex="1" parent="1">
          <mxGeometry x="402" y="80" width="38" height="60" as="geometry" />
        </mxCell>
        <mxCell id="eMfwU3fscMKZv_2OrXQS-15" style="edgeStyle=orthogonalEdgeStyle;rounded=0;orthogonalLoop=1;jettySize=auto;html=1;exitX=1;exitY=0.5;exitDx=0;exitDy=0;exitPerimeter=0;" edge="1" parent="1" source="eMfwU3fscMKZv_2OrXQS-12" target="eMfwU3fscMKZv_2OrXQS-8">
          <mxGeometry relative="1" as="geometry" />
        </mxCell>
        <mxCell id="eMfwU3fscMKZv_2OrXQS-12" value="Input2" style="verticalLabelPosition=bottom;html=1;verticalAlign=top;align=center;strokeColor=none;fillColor=#00BEF2;shape=mxgraph.azure.cloud_services_configuration_file;pointerEvents=1;" vertex="1" parent="1">
          <mxGeometry x="120" y="140" width="40" height="40" as="geometry" />
        </mxCell>
        <mxCell id="eMfwU3fscMKZv_2OrXQS-13" value="Server2" style="outlineConnect=0;dashed=0;verticalLabelPosition=bottom;verticalAlign=top;align=center;html=1;shape=mxgraph.aws3.traditional_server;fillColor=#7D7C7C;gradientColor=none;" vertex="1" parent="1">
          <mxGeometry x="402" y="180" width="38" height="60" as="geometry" />
        </mxCell>
        <mxCell id="eMfwU3fscMKZv_2OrXQS-14" style="edgeStyle=orthogonalEdgeStyle;rounded=0;orthogonalLoop=1;jettySize=auto;html=1;entryX=0;entryY=0.5;entryDx=0;entryDy=0;entryPerimeter=0;" edge="1" parent="1" source="eMfwU3fscMKZv_2OrXQS-8" target="eMfwU3fscMKZv_2OrXQS-13">
          <mxGeometry relative="1" as="geometry" />
        </mxCell>
        <mxCell id="eMfwU3fscMKZv_2OrXQS-16" value="Input3" style="verticalLabelPosition=bottom;html=1;verticalAlign=top;align=center;strokeColor=none;fillColor=#00BEF2;shape=mxgraph.azure.cloud_services_configuration_file;pointerEvents=1;" vertex="1" parent="1">
          <mxGeometry x="120" y="220" width="40" height="40" as="geometry" />
        </mxCell>
        <mxCell id="eMfwU3fscMKZv_2OrXQS-17" style="edgeStyle=orthogonalEdgeStyle;rounded=0;orthogonalLoop=1;jettySize=auto;html=1;exitX=1;exitY=0.5;exitDx=0;exitDy=0;exitPerimeter=0;entryX=0;entryY=0.5;entryDx=0;entryDy=0;entryPerimeter=0;" edge="1" parent="1" source="eMfwU3fscMKZv_2OrXQS-16" target="eMfwU3fscMKZv_2OrXQS-8">
          <mxGeometry relative="1" as="geometry" />
        </mxCell>
      </root>
    </mxGraphModel>
  </diagram>
</mxfile>
